<?xml version="1.0" encoding="UTF-8"?>
<svg xmlns="http://www.w3.org/2000/svg" width="180" height="48" viewBox="0 0 180 48" fill="none">
  <path d="M0 12.7641C4.95697 12.7641 17.6592 12.7641 17.6592 12.7641V1.92078H49.2599M49.2599 1.92078V12.7641H66.9191M49.2599 1.92078H66.9191M49.2599 34.4509V23.6075H66.9191M49.2599 34.4509H35.7831M49.2599 34.4509H66.9191M4.72734e-06 23.6075H17.6592V34.4509M17.6592 34.4509H4.72734e-06M17.6592 34.4509H31.136M0 45.2943H15.3356M19.9828 45.2943H66.9191M33.4596 12.7641V23.6075M0 1.92078H10.6885" stroke="#E4E0FF" stroke-width="3.84165"></path>
  <path d="M139.049 47.3275C138.289 47.3275 137.635 47.1557 137.088 46.812C136.546 46.4683 136.127 45.9963 135.832 45.396C135.542 44.7909 135.396 44.1035 135.396 43.3339C135.396 42.5545 135.549 41.8623 135.854 41.2572C136.159 40.6521 136.58 40.1777 137.117 39.834C137.655 39.4854 138.272 39.3112 138.969 39.3112C139.695 39.3112 140.324 39.4806 140.857 39.8194C141.394 40.1583 141.811 40.6303 142.106 41.2354C142.401 41.8356 142.549 42.5303 142.549 43.3193V43.7332H136.907C136.936 44.4255 137.134 44.9846 137.502 45.4106C137.875 45.8365 138.398 46.0495 139.071 46.0495C139.574 46.0495 139.988 45.9358 140.312 45.7083C140.637 45.4807 140.852 45.1855 140.959 44.8224H142.433C142.341 45.3162 142.135 45.7518 141.815 46.1294C141.501 46.507 141.104 46.8023 140.625 47.0153C140.15 47.2234 139.625 47.3275 139.049 47.3275ZM136.921 42.5714H141.053C140.99 41.9615 140.775 41.4798 140.407 41.1265C140.039 40.7682 139.564 40.5891 138.984 40.5891C138.403 40.5891 137.928 40.7682 137.56 41.1265C137.197 41.4798 136.984 41.9615 136.921 42.5714Z" fill="#E4E0FF"></path>
  <path d="M130.466 47.1533L127.547 39.4855H129.188L130.713 43.6897C130.819 43.9898 130.921 44.29 131.018 44.5901C131.115 44.8902 131.211 45.1879 131.308 45.4832C131.405 45.1879 131.502 44.8902 131.599 44.5901C131.695 44.29 131.795 43.9898 131.896 43.6897L133.399 39.4855H135.019L132.092 47.1533H130.466Z" fill="#E4E0FF"></path>
  <path d="M124.969 47.1533V39.4855H126.501V47.1533H124.969ZM124.933 37.917V36.3341H126.537V37.917H124.933Z" fill="#E4E0FF"></path>
  <path d="M123.756 39.4855V40.749H122.202V45.1275C122.202 45.4131 122.261 45.6115 122.377 45.7229C122.493 45.8342 122.703 45.8899 123.008 45.8899H123.756V47.1533H122.791C121.372 47.1533 120.663 46.5434 120.663 45.3235V40.749H119.312V39.4855H120.663V37.3943H122.202V39.4855H123.756Z" fill="#E4E0FF"></path>
  <path d="M114.528 47.2767C113.763 47.2767 113.129 47.0831 112.625 46.6959C112.122 46.3037 111.87 45.7253 111.87 44.9604C111.87 44.3795 112.013 43.9342 112.299 43.6244C112.589 43.3097 112.964 43.0846 113.424 42.9491C113.889 42.8135 114.38 42.7143 114.898 42.6514C115.377 42.5933 115.757 42.5449 116.038 42.5061C116.319 42.4674 116.517 42.4093 116.633 42.3319C116.754 42.2544 116.815 42.1213 116.815 41.9325V41.8672C116.815 41.4944 116.679 41.1895 116.408 40.9523C116.137 40.7102 115.757 40.5892 115.268 40.5892C114.779 40.5892 114.38 40.7078 114.07 40.945C113.76 41.1773 113.591 41.4702 113.562 41.8236H112.059C112.093 41.0926 112.4 40.4948 112.981 40.0301C113.562 39.5654 114.332 39.333 115.29 39.333C116.234 39.333 116.977 39.5654 117.519 40.0301C118.061 40.4948 118.333 41.1168 118.333 41.8962V47.1533H116.822V46.0641H116.793C116.633 46.3739 116.379 46.6547 116.031 46.9064C115.687 47.1533 115.186 47.2767 114.528 47.2767ZM114.84 46.0423C115.518 46.0423 116.016 45.8681 116.336 45.5195C116.66 45.1662 116.822 44.7547 116.822 44.2851V43.3848C116.721 43.467 116.491 43.5421 116.132 43.6098C115.774 43.6728 115.392 43.7333 114.985 43.7914C114.564 43.8543 114.194 43.9729 113.874 44.1472C113.555 44.3214 113.395 44.6022 113.395 44.9895C113.395 45.3186 113.523 45.5776 113.78 45.7664C114.041 45.9504 114.395 46.0423 114.84 46.0423Z" fill="#E4E0FF"></path>
  <path d="M108.922 47.1533V39.4855H110.454V47.1533H108.922ZM108.886 37.917V36.3341H110.49V37.917H108.886Z" fill="#E4E0FF"></path>
  <path d="M107.709 39.4855V40.749H106.156V45.1275C106.156 45.4131 106.214 45.6115 106.33 45.7229C106.446 45.8342 106.657 45.8899 106.962 45.8899H107.709V47.1533H106.744C105.325 47.1533 104.616 46.5434 104.616 45.3235V40.749H103.266V39.4855H104.616V37.3943H106.156V39.4855H107.709Z" fill="#E4E0FF"></path>
  <path d="M100.615 47.1533V39.4855H102.148V47.1533H100.615ZM100.579 37.917V36.3341H102.184V37.917H100.579Z" fill="#E4E0FF"></path>
  <path d="M93.8261 42.7385V47.1533H92.2939V39.4855H93.797V40.64C94.3198 39.7687 95.0919 39.333 96.1133 39.333C96.641 39.333 97.113 39.4492 97.5293 39.6815C97.9504 39.9091 98.282 40.2479 98.524 40.6981C98.7661 41.1483 98.8871 41.7074 98.8871 42.3754V47.1533H97.355V42.5642C97.355 41.9495 97.2073 41.4872 96.9121 41.1773C96.6168 40.8627 96.2053 40.7054 95.6777 40.7054C95.1549 40.7054 94.7143 40.8675 94.3561 41.1919C94.0027 41.5114 93.8261 42.0269 93.8261 42.7385Z" fill="#E4E0FF"></path>
  <path d="M86.6738 47.1533V45.7737H87.9736V37.7137H86.6738V36.3341H90.8853V37.7137H89.5856V45.7737H90.8853V47.1533H86.6738Z" fill="#E4E0FF"></path>
  <path d="M175.928 28.8744V21.2066H177.394V22.4482H177.424C177.564 22.0271 177.784 21.7003 178.084 21.468C178.389 21.2308 178.786 21.1122 179.275 21.1122C179.391 21.1122 179.498 21.117 179.595 21.1267C179.691 21.1364 179.771 21.1436 179.834 21.1485V22.5789C179.776 22.5644 179.672 22.5499 179.522 22.5354C179.372 22.516 179.207 22.5063 179.028 22.5063C178.597 22.5063 178.227 22.6564 177.917 22.9565C177.612 23.2567 177.46 23.7189 177.46 24.3434V28.8744H175.928Z" fill="#E4E0FF"></path>
  <path d="M171.1 29.0487C170.34 29.0487 169.686 28.8769 169.139 28.5332C168.597 28.1895 168.178 27.7175 167.883 27.1172C167.592 26.5121 167.447 25.8247 167.447 25.055C167.447 24.2757 167.6 23.5834 167.905 22.9783C168.21 22.3732 168.631 21.8989 169.168 21.5552C169.705 21.2066 170.323 21.0323 171.02 21.0323C171.746 21.0323 172.375 21.2018 172.908 21.5406C173.445 21.8795 173.861 22.3515 174.157 22.9566C174.452 23.5568 174.6 24.2515 174.6 25.0405V25.4544H168.958C168.987 26.1466 169.185 26.7058 169.553 27.1317C169.926 27.5577 170.449 27.7707 171.121 27.7707C171.625 27.7707 172.039 27.657 172.363 27.4295C172.687 27.2019 172.903 26.9066 173.009 26.5436H174.483C174.391 27.0374 174.186 27.473 173.866 27.8506C173.552 28.2282 173.155 28.5235 172.675 28.7365C172.201 28.9446 171.676 29.0487 171.1 29.0487ZM168.972 24.2926H173.104C173.041 23.6827 172.825 23.201 172.457 22.8476C172.09 22.4894 171.615 22.3103 171.034 22.3103C170.453 22.3103 169.979 22.4894 169.611 22.8476C169.248 23.201 169.035 23.6827 168.972 24.2926Z" fill="#E4E0FF"></path>
  <path d="M158.24 28.8745L155.865 21.2067H157.47L158.349 24.3435C158.479 24.8082 158.603 25.2826 158.719 25.7667C158.84 26.2508 158.959 26.73 159.075 27.2044C159.201 26.73 159.324 26.2508 159.445 25.7667C159.571 25.2826 159.697 24.8082 159.823 24.3435L160.716 21.2067H162.175L163.054 24.3435C163.185 24.8034 163.31 25.2729 163.431 25.7522C163.552 26.2314 163.673 26.7058 163.794 27.1754C163.911 26.7058 164.027 26.2314 164.143 25.7522C164.264 25.2729 164.39 24.8034 164.521 24.3435L165.406 21.2067H167.026L164.651 28.8745H163.054L162.081 25.5343C161.969 25.1471 161.861 24.7501 161.754 24.3435C161.652 23.9369 161.551 23.5327 161.449 23.1309C161.343 23.5327 161.236 23.9369 161.13 24.3435C161.028 24.7501 160.919 25.1471 160.803 25.5343L159.815 28.8745H158.24Z" fill="#E4E0FF"></path>
  <path d="M151.778 29.0487C151.047 29.0487 150.405 28.8793 149.853 28.5404C149.302 28.2016 148.871 27.732 148.561 27.1317C148.256 26.5315 148.104 25.8393 148.104 25.055C148.104 24.2612 148.256 23.5641 148.561 22.9638C148.871 22.3587 149.302 21.8867 149.853 21.5479C150.405 21.2042 151.047 21.0323 151.778 21.0323C152.509 21.0323 153.148 21.2042 153.695 21.5479C154.246 21.8867 154.675 22.3587 154.98 22.9638C155.29 23.5641 155.445 24.2612 155.445 25.055C155.445 25.8393 155.29 26.5315 154.98 27.1317C154.675 27.732 154.246 28.2016 153.695 28.5404C153.148 28.8793 152.509 29.0487 151.778 29.0487ZM151.778 27.7272C152.436 27.7272 152.954 27.4851 153.332 27.001C153.709 26.517 153.898 25.8683 153.898 25.055C153.898 24.2321 153.707 23.5762 153.324 23.0873C152.947 22.5983 152.431 22.3539 151.778 22.3539C151.124 22.3539 150.606 22.5983 150.224 23.0873C149.846 23.5713 149.657 24.2273 149.657 25.055C149.657 25.8731 149.846 26.5242 150.224 27.0083C150.601 27.4875 151.119 27.7272 151.778 27.7272Z" fill="#E4E0FF"></path>
  <path d="M146.745 18.0553V28.8745H145.213V18.0553H146.745Z" fill="#E4E0FF"></path>
  <path d="M140.537 29.027C140.038 29.027 139.58 28.918 139.164 28.7002C138.753 28.4824 138.419 28.1508 138.162 27.7054H138.148V28.8745H136.645V18.0553H138.177V22.3176H138.191C138.438 21.8916 138.767 21.5746 139.179 21.3664C139.59 21.1582 140.045 21.0542 140.544 21.0542C141.202 21.0542 141.781 21.2236 142.279 21.5625C142.778 21.8965 143.165 22.3636 143.441 22.9639C143.722 23.5593 143.862 24.2515 143.862 25.0406C143.862 25.8296 143.724 26.5243 143.448 27.1245C143.172 27.7199 142.785 28.1871 142.286 28.5259C141.788 28.8599 141.205 29.027 140.537 29.027ZM140.224 27.7054C140.844 27.7054 141.345 27.4779 141.727 27.0229C142.115 26.5678 142.308 25.9071 142.308 25.0406C142.308 24.1741 142.115 23.5133 141.727 23.0583C141.345 22.5984 140.844 22.3684 140.224 22.3684C139.571 22.3684 139.048 22.6129 138.656 23.1018C138.269 23.5859 138.075 24.2321 138.075 25.0406C138.075 25.8441 138.269 26.4904 138.656 26.9793C139.048 27.4634 139.571 27.7054 140.224 27.7054Z" fill="#E4E0FF"></path>
  <path d="M131.816 29.0487C131.056 29.0487 130.403 28.8769 129.856 28.5332C129.314 28.1895 128.895 27.7175 128.6 27.1172C128.309 26.5121 128.164 25.8247 128.164 25.055C128.164 24.2757 128.317 23.5834 128.622 22.9783C128.926 22.3732 129.348 21.8989 129.885 21.5552C130.422 21.2066 131.039 21.0323 131.737 21.0323C132.463 21.0323 133.092 21.2018 133.624 21.5406C134.162 21.8795 134.578 22.3515 134.873 22.9566C135.169 23.5568 135.316 24.2515 135.316 25.0405V25.4544H129.674C129.703 26.1466 129.902 26.7058 130.27 27.1317C130.643 27.5577 131.165 27.7707 131.838 27.7707C132.342 27.7707 132.756 27.657 133.08 27.4295C133.404 27.2019 133.62 26.9066 133.726 26.5436H135.2C135.108 27.0374 134.902 27.473 134.583 27.8506C134.268 28.2282 133.871 28.5235 133.392 28.7365C132.918 28.9446 132.392 29.0487 131.816 29.0487ZM129.689 24.2926H133.821C133.758 23.6827 133.542 23.201 133.174 22.8476C132.806 22.4894 132.332 22.3103 131.751 22.3103C131.17 22.3103 130.696 22.4894 130.328 22.8476C129.965 23.201 129.752 23.6827 129.689 24.2926Z" fill="#E4E0FF"></path>
  <path d="M126.807 18.0553V28.8745H125.274V18.0553H126.807Z" fill="#E4E0FF"></path>
  <path d="M124.061 21.2066V22.47H122.507V26.8485C122.507 27.1341 122.565 27.3326 122.681 27.4439C122.798 27.5553 123.008 27.6109 123.313 27.6109H124.061V28.8744H123.095C121.677 28.8744 120.968 28.2645 120.968 27.0446V22.47H119.617V21.2066H120.968V19.1154H122.507V21.2066H124.061Z" fill="#E4E0FF"></path>
  <path d="M115.77 29.056C115.184 29.056 114.656 28.9616 114.187 28.7728C113.717 28.584 113.337 28.3033 113.047 27.9305C112.761 27.5578 112.601 27.0955 112.567 26.5437H114.078C114.165 27.4053 114.719 27.8361 115.741 27.8361C116.225 27.8361 116.607 27.7369 116.888 27.5384C117.173 27.34 117.316 27.0882 117.316 26.7833C117.316 26.5219 117.215 26.3137 117.011 26.1588C116.808 25.9991 116.542 25.8829 116.212 25.8103L114.942 25.5271C113.475 25.2076 112.742 24.4766 112.742 23.3342C112.742 22.6565 113.01 22.1046 113.548 21.6787C114.09 21.2527 114.799 21.0397 115.675 21.0397C116.542 21.0397 117.253 21.2648 117.81 21.715C118.371 22.1603 118.662 22.7703 118.681 23.5448H117.215C117.21 23.172 117.069 22.8647 116.793 22.6226C116.517 22.3757 116.152 22.2523 115.697 22.2523C115.261 22.2523 114.915 22.3539 114.659 22.5573C114.402 22.7606 114.274 23.0099 114.274 23.3052C114.274 23.5666 114.371 23.7771 114.564 23.9369C114.763 24.0966 115.034 24.2152 115.377 24.2927L116.684 24.5831C117.43 24.7477 117.979 25.0019 118.333 25.3456C118.686 25.6893 118.863 26.1394 118.863 26.6961C118.863 27.1851 118.727 27.6062 118.456 27.9596C118.19 28.3081 117.824 28.5792 117.36 28.7728C116.895 28.9616 116.365 29.056 115.77 29.056Z" fill="#E4E0FF"></path>
  <path d="M109.662 28.8745V21.2067H111.194V28.8745H109.662ZM109.626 19.6382V18.0553H111.231V19.6382H109.626Z" fill="#E4E0FF"></path>
  <path d="M102.873 24.4597V28.8745H101.341V18.0553H102.873V22.3104C103.401 21.4729 104.163 21.0542 105.16 21.0542C105.688 21.0542 106.16 21.1703 106.576 21.4027C106.997 21.6302 107.329 21.9691 107.571 22.4193C107.813 22.8695 107.934 23.4286 107.934 24.0966V28.8745H106.402V24.2854C106.402 23.6706 106.254 23.2083 105.959 22.8985C105.664 22.5839 105.252 22.4265 104.725 22.4265C104.202 22.4265 103.761 22.5887 103.403 22.913C103.05 23.2325 102.873 23.7481 102.873 24.4597Z" fill="#E4E0FF"></path>
  <path d="M89.1786 28.8745L86.2451 18.0553H87.9225L89.5127 24.3507C89.6288 24.8155 89.7377 25.2826 89.8394 25.7522C89.9411 26.2169 90.0403 26.684 90.1371 27.1536C90.2339 26.684 90.3356 26.2169 90.4421 25.7522C90.5486 25.2826 90.6623 24.8155 90.7834 24.3507L92.4244 18.0553H94.1889L95.8154 24.3507C96.0477 25.2705 96.2631 26.1927 96.4616 27.1173C96.5584 26.6574 96.6577 26.1975 96.7593 25.7376C96.8658 25.2729 96.9747 24.8106 97.0861 24.3507L98.6763 18.0553H100.361L97.4128 28.8745H95.5685L93.7895 22.2595C93.7024 21.9255 93.6176 21.5842 93.5353 21.2357C93.4579 20.8823 93.378 20.5217 93.2957 20.1538C93.2183 20.5217 93.1408 20.8823 93.0634 21.2357C92.9859 21.5842 92.9012 21.9255 92.8092 22.2595L91.0448 28.8745H89.1786Z" fill="#E4E0FF"></path>
  <path d="M125.869 10.9055V9.52585H127.169V1.46593H125.869V0.0863037H130.081V1.46593H128.781V9.52585H130.081V10.9055H125.869Z" fill="#E4E0FF"></path>
  <path d="M115.421 10.9055L119.349 0.0863037H121.295L125.194 10.9055H123.445L122.486 8.09539H118.122L117.135 10.9055H115.421ZM118.609 6.72303H122.014L121.361 4.80608C121.215 4.36072 121.06 3.88391 120.896 3.37562C120.731 2.86734 120.542 2.26224 120.329 1.56032C120.112 2.26224 119.92 2.86734 119.756 3.37562C119.591 3.88391 119.434 4.36072 119.284 4.80608L118.609 6.72303Z" fill="#E4E0FF"></path>
  <path d="M107.796 11.0797C107.036 11.0797 106.382 10.9079 105.835 10.5642C105.293 10.2205 104.875 9.74849 104.579 9.14823C104.289 8.54313 104.144 7.85574 104.144 7.08605C104.144 6.30668 104.296 5.61445 104.601 5.00935C104.906 4.40425 105.327 3.92986 105.864 3.58616C106.402 3.23762 107.019 3.06335 107.716 3.06335C108.442 3.06335 109.071 3.23278 109.604 3.57164C110.141 3.91049 110.558 4.38247 110.853 4.98757C111.148 5.58783 111.296 6.28248 111.296 7.07153V7.48542H105.654C105.683 8.17765 105.881 8.73676 106.249 9.16275C106.622 9.58874 107.145 9.80174 107.818 9.80174C108.321 9.80174 108.735 9.68798 109.059 9.46046C109.384 9.23294 109.599 8.93766 109.706 8.5746H111.18C111.088 9.06836 110.882 9.50403 110.562 9.88161C110.248 10.2592 109.851 10.5545 109.372 10.7675C108.897 10.9756 108.372 11.0797 107.796 11.0797ZM105.668 6.32363H109.8C109.737 5.71369 109.522 5.23203 109.154 4.87865C108.786 4.52043 108.311 4.34132 107.731 4.34132C107.15 4.34132 106.675 4.52043 106.307 4.87865C105.944 5.23203 105.731 5.71369 105.668 6.32363Z" fill="#E4E0FF"></path>
  <path d="M97.7323 6.49067V10.9055H96.2002V0.0863037H97.7323V4.34136C98.26 3.5039 99.0224 3.08517 100.02 3.08517C100.547 3.08517 101.019 3.20135 101.436 3.43371C101.857 3.66123 102.188 4.00008 102.43 4.45028C102.672 4.90047 102.793 5.45958 102.793 6.12761V10.9055H101.261V6.3164C101.261 5.70162 101.114 5.23933 100.818 4.92952C100.523 4.61486 100.112 4.45754 99.5839 4.45754C99.0611 4.45754 98.6206 4.61971 98.2624 4.94404C97.909 5.26353 97.7323 5.77908 97.7323 6.49067Z" fill="#E4E0FF"></path>
  <path d="M86.4775 1.50224V0.0863037H94.9804V1.50224H91.5458V10.9055H89.9266V1.50224H86.4775Z" fill="#E4E0FF"></path>
</svg>
