<svg width="143" height="38" viewBox="0 0 143 38" fill="none" xmlns="http://www.w3.org/2000/svg"> <path d="M22.4153 2.99121L18.1882 3.08628L13.7636 2.99121L13.6027 4.11015L16.4915 4.527V13.0104H6.23825V4.527L8.96611 4.11015L8.80521 2.99121L4.57813 3.08628L0.160893 2.99121L0 4.11015L2.88144 4.527V23.9292L0 24.3461L0.160893 25.465L4.57813 25.3699L8.80521 25.465L8.96611 24.3461L6.23825 23.9292V14.612H16.4915V18.2614C17.5592 17.8372 18.6782 17.4057 19.8483 16.9669V4.527L22.5688 4.11015L22.4153 2.99121ZM19.8483 23.9292V17.7056C18.6782 18.0786 17.5592 18.4588 16.4915 18.8318V23.9292L13.6027 24.3461L13.7636 25.465L18.1882 25.3699L22.4153 25.465L22.5688 24.3461L19.8483 23.9292Z" fill="#AE0004"/> <path d="M35.3818 2.44263C27.4761 3.75902 23.856 7.62776 23.856 14.707C23.856 14.9849 23.8633 15.2555 23.8852 15.5188C25.07 15.102 26.2986 14.6924 27.5565 14.2902C27.5492 14.0708 27.5419 13.866 27.5419 13.6539C27.5419 8.43222 29.6847 4.20513 34.6139 4.20513C38.6727 4.20513 40.9179 7.01344 41.9198 10.2898C43.1192 10.0119 44.3332 9.7413 45.5619 9.48534C44.07 5.26556 40.3255 2.44263 35.3818 2.44263ZM46.0226 11.182C44.772 11.4014 43.5361 11.6354 42.3148 11.8768C42.4976 12.8641 42.5854 13.8587 42.5854 14.8021C42.5854 19.9946 40.4718 24.2509 35.5426 24.2509C30.3648 24.2509 28.0904 19.702 27.6297 15.3506C26.3718 15.709 25.1504 16.06 23.9657 16.411C24.6678 22.0057 28.8583 26.0134 34.7455 26.0134C42.6512 24.697 46.2713 20.821 46.2713 13.749C46.2713 12.8568 46.1908 12.0011 46.0226 11.182Z" fill="#AE0004"/> <path d="M66.0315 23.9287L60.5246 16.1474L58.316 14.8383C61.5265 13.9973 64.6493 12.3591 64.8614 8.94378C63.6182 9.01691 62.3749 9.10467 61.1389 9.20706C60.9342 11.8398 58.7841 13.7121 55.5589 13.7121H53.321V10.0554C52.1875 10.209 51.0685 10.3699 49.9569 10.5381V23.9287L47.0755 24.3456L47.2364 25.4645L51.6536 25.3695L55.8807 25.4645L56.0416 24.3456L53.321 23.9287V15.1528H55.6247L55.9758 15.5111L62.7625 25.4645L65.0077 25.3695L67.6332 25.4645L67.7575 24.4114L66.0315 23.9287ZM49.9569 8.62931C51.0685 8.43185 52.1875 8.2417 53.321 8.06618V4.52655L56.5169 4.3364C58.5647 4.35834 60.2687 5.25788 60.8903 7.09351C62.1189 6.96919 63.3622 6.85949 64.6054 6.77173C63.7498 4.16819 60.9561 2.9615 57.4823 2.99075L51.6536 3.08583L47.2364 2.99075L47.0755 4.10969L49.9569 4.52655V8.62931Z" fill="#AE0004"/> <path d="M69.0449 24.346L71.2827 24.0242V12.3375L69.0449 12.5277L68.884 11.4087L72.7235 10.4141L74.3251 10.2898V24.0242L76.7312 24.346L76.5703 25.4649L72.8844 25.3698L69.2058 25.4649L69.0449 24.346Z" fill="#AE0004"/> <path d="M94.3419 3.02075H79.101V8.62274H80.5125L81.1853 6.7871L81.9824 4.62236L91.4605 4.46147L90.1807 5.58041L88.8569 7.56963C90.0051 7.72321 91.1387 7.8841 92.2649 8.06693L94.6637 4.46147L94.3419 3.02075ZM93.8007 19.5415L91.6506 23.8344L81.1487 23.9953L82.4286 22.8398L91.1021 9.8075C89.9539 9.66854 88.7911 9.5369 87.621 9.41989L78.0113 23.8344L78.3331 25.436H94.2103L95.3365 19.5415H93.8007Z" fill="#AE0004"/> <path d="M117.064 14.9484C116.494 14.7948 115.924 14.6412 115.338 14.4876C115.338 14.59 115.338 14.6997 115.338 14.8021C115.338 19.9946 113.225 24.2509 108.296 24.2509C102.438 24.2509 100.295 18.4222 100.295 13.6539C100.295 12.8056 100.353 11.9865 100.47 11.2113C99.3589 11.0138 98.2326 10.8237 97.0991 10.6482C96.77 11.8622 96.6091 13.2151 96.6091 14.707C96.6091 21.172 101.026 26.0134 107.499 26.0134C114.739 24.8067 118.381 21.4572 118.944 15.4749C118.322 15.2994 117.693 15.1239 117.057 14.9484H117.064ZM108.142 2.44263C102.694 3.34948 99.2857 5.47033 97.6914 9.00997C98.7372 9.21474 99.7757 9.42683 100.8 9.64623C101.692 6.42838 103.798 4.20513 107.374 4.20513C112.698 4.20513 114.907 9.03191 115.28 13.4126C116.552 13.8002 117.796 14.1951 119.01 14.5973C119.024 14.3194 119.032 14.0415 119.032 13.749C119.032 7.27672 114.614 2.44263 108.142 2.44263Z" fill="#AE0004"/> <path d="M142.185 2.99121L138.243 3.08628L134.821 2.99121L134.66 4.11015L137.38 4.527V20.726L136.708 18.8391L125.504 2.99121L123.105 3.08628L120.121 2.99121L119.96 4.11015L122.717 4.75372V15.8626C123.427 16.1113 124.121 16.3599 124.801 16.6086V5.87265L125.343 8.08127L133.746 20.1775L133.95 20.47L137.446 25.5016H139.465V4.527L142.346 4.11015L142.185 2.99121ZM124.801 17.2375C124.121 17.0181 123.427 16.806 122.717 16.5866V23.9292L119.836 24.3461L119.997 25.465L123.931 25.3699L127.361 25.465L127.522 24.3461L124.801 23.9292V17.2375Z" fill="#AE0004"/> <path d="M75.4952 8.71745L75.678 9.27327L74.8955 8.70283H74.8882L72.665 7.08659L70.4051 8.72477L69.6519 9.27327L69.8274 8.73939L70.5514 6.49421L70.8001 5.73363L67.787 3.53964H71.5095L72.665 0L73.8131 3.53964H77.5356L74.5225 5.73363L74.7712 6.4869L75.4952 8.71745Z" fill="#FFB800"/> <path d="M1.46284 37.89V31.0813H2.69879V37.89H1.46284Z" fill="#002278"/> <path d="M4.64386 37.89V31.0813H5.82861L8.41752 36.069L8.15424 36.1567V31.0813H9.29512V37.89H8.1835L5.52877 32.6244L5.77011 32.5366V37.89H4.64386Z" fill="#002278"/> <path d="M12.9447 37.9852C12.4694 37.9852 12.0745 37.8974 11.7454 37.7292C11.4236 37.561 11.1749 37.3123 11.014 36.9832C10.8531 36.6541 10.7727 36.2592 10.78 35.7985H11.9209C11.9209 36.0618 11.9574 36.2885 12.0379 36.4786C12.1183 36.6688 12.2353 36.8077 12.3889 36.9101C12.5425 37.0125 12.7253 37.0564 12.9447 37.0564C13.1276 37.0564 13.2811 37.0198 13.4128 36.9467C13.5444 36.8735 13.6395 36.7711 13.7126 36.6322C13.7858 36.4932 13.8223 36.325 13.8223 36.1422C13.8223 35.9374 13.7785 35.7765 13.698 35.6376C13.6176 35.5059 13.5079 35.3962 13.3616 35.3012C13.2153 35.2134 13.0617 35.133 12.8862 35.0598C12.718 34.994 12.5352 34.9209 12.345 34.8478C12.1549 34.7746 11.9794 34.6942 11.8039 34.5918C11.6357 34.4967 11.4748 34.3724 11.3431 34.2334C11.2042 34.0945 11.1018 33.919 11.014 33.7069C10.9336 33.5021 10.8897 33.2388 10.8897 32.917C10.8897 32.5148 10.9628 32.1711 11.1164 31.8786C11.27 31.586 11.4967 31.3666 11.7892 31.213C12.0891 31.0595 12.4474 30.9863 12.857 30.9863C13.2958 30.9863 13.6761 31.0668 13.9832 31.2277C14.2977 31.3886 14.5317 31.6226 14.6999 31.9297C14.8681 32.2442 14.9486 32.6245 14.9486 33.0852H13.8516C13.8662 32.8293 13.837 32.6099 13.7565 32.4417C13.6834 32.2735 13.5737 32.1345 13.4274 32.0468C13.2885 31.9517 13.1203 31.9078 12.9228 31.9078C12.7546 31.9078 12.6083 31.9444 12.4767 32.0175C12.345 32.0906 12.25 32.193 12.1842 32.3393C12.1183 32.4782 12.0891 32.6538 12.0891 32.8439C12.0891 33.056 12.133 33.2315 12.2134 33.3632C12.2939 33.4948 12.4109 33.6118 12.5498 33.6996C12.6888 33.7946 12.8423 33.8678 13.0179 33.9263C13.1861 33.9848 13.3689 34.0506 13.5591 34.1164C13.7492 34.1822 13.9247 34.2627 14.1002 34.3504C14.2684 34.4382 14.4293 34.5552 14.5683 34.6942C14.7072 34.8331 14.8169 35.0086 14.8974 35.2134C14.9778 35.4182 15.0217 35.6815 15.0217 36.0033C15.0217 36.4274 14.9413 36.7858 14.7804 37.0856C14.6195 37.3855 14.3781 37.6049 14.0637 37.7584C13.7492 37.912 13.3689 37.9852 12.9301 37.9852H12.9447Z" fill="#002278"/> <path d="M17.596 37.89V32.1198H16.1626V31.0813H20.258V32.1198H18.8246V37.89H17.5887H17.596Z" fill="#002278"/> <path d="M21.8374 37.89V31.0813H23.0733V37.89H21.8374Z" fill="#002278"/> <path d="M26.0792 37.89V32.1198H24.6458V31.0813H28.7413V32.1198H27.3079V37.89H26.0719H26.0792Z" fill="#002278"/> <path d="M32.449 37.9997C31.9444 37.9997 31.5202 37.9046 31.1765 37.7071C30.8328 37.5097 30.5695 37.2171 30.4013 36.8222C30.2331 36.4273 30.138 35.9373 30.138 35.3449V31.0813H31.352V35.3815C31.352 35.7325 31.3886 36.0251 31.469 36.2518C31.5495 36.4785 31.6665 36.654 31.8274 36.771C31.9883 36.888 32.193 36.9466 32.4417 36.9466C32.6757 36.9466 32.8659 36.91 33.0048 36.8369C33.1438 36.7637 33.2608 36.654 33.3412 36.5078C33.4217 36.3615 33.4729 36.2006 33.5021 36.0031C33.5314 35.8057 33.5387 35.6009 33.5387 35.3742V31.074H34.7527V35.3376C34.7527 35.93 34.6649 36.42 34.4967 36.8149C34.3285 37.2098 34.0726 37.5024 33.7361 37.6998C33.3924 37.8973 32.9682 37.9924 32.449 37.9924V37.9997Z" fill="#002278"/> <path d="M37.5104 37.89V32.1198H36.077V31.0813H40.1724V32.1198H38.739V37.89H37.5031H37.5104Z" fill="#002278"/> <path d="M41.7518 37.89V31.0813H45.3061V32.1125H42.9439V33.992H45.0721V34.9281H42.9439V36.8661H45.3061V37.8973H41.7518V37.89Z" fill="#002278"/> <path d="M50.206 37.89V31.0813H53.7164V32.1198H51.4127V34.1456H53.497V35.1767H51.4127V37.89H50.206Z" fill="#002278"/> <path d="M57.7168 37.9779C57.2926 37.9779 56.905 37.8974 56.5612 37.7438C56.2175 37.5903 55.9323 37.3562 55.691 37.0564C55.4496 36.7492 55.2668 36.3836 55.1425 35.9448C55.0181 35.5133 54.9596 35.016 54.9596 34.4675C54.9596 33.7361 55.0693 33.1072 55.2887 32.588C55.5081 32.0687 55.8226 31.6738 56.2322 31.4032C56.6417 31.1326 57.1317 30.9937 57.7021 30.9937C58.1336 30.9937 58.5212 31.0741 58.8649 31.2277C59.2087 31.3813 59.4939 31.608 59.7279 31.9078C59.9619 32.2077 60.1448 32.5733 60.2764 33.0048C60.408 33.4363 60.4666 33.9263 60.4666 34.4675C60.4666 35.1988 60.3569 35.8277 60.1375 36.3543C59.9181 36.8809 59.6036 37.2831 59.1867 37.561C58.7699 37.8389 58.2799 37.9779 57.7094 37.9779H57.7168ZM57.7094 36.9174C58.0312 36.9174 58.3091 36.8224 58.5285 36.6322C58.7552 36.4421 58.9235 36.1642 59.0405 35.7985C59.1575 35.4328 59.216 34.9867 59.216 34.4675C59.216 34.0726 59.1794 33.7288 59.1136 33.429C59.0478 33.1364 58.9454 32.8805 58.8137 32.6757C58.6821 32.4709 58.5285 32.31 58.3384 32.2077C58.1482 32.1053 57.9435 32.0541 57.7021 32.0541C57.3877 32.0541 57.1171 32.1492 56.8977 32.332C56.6783 32.5148 56.5101 32.7854 56.393 33.1511C56.276 33.5094 56.2175 33.9482 56.2175 34.4675C56.2175 34.8624 56.2468 35.2134 56.3126 35.5206C56.3784 35.8277 56.4735 36.0837 56.5978 36.2885C56.7221 36.4933 56.883 36.6541 57.0659 36.7638C57.256 36.8735 57.4681 36.9247 57.7021 36.9247L57.7094 36.9174Z" fill="#002278"/> <path d="M61.9801 37.89V31.0813H63.8742C64.2399 31.0813 64.5617 31.1325 64.8249 31.2276C65.0882 31.3226 65.3003 31.4689 65.4685 31.6517C65.6367 31.8419 65.7537 32.0686 65.8342 32.3392C65.9146 32.6098 65.9585 32.9023 65.9585 33.2314C65.9585 33.5605 65.9073 33.8677 65.8122 34.1456C65.7172 34.4235 65.5709 34.6575 65.3734 34.833C65.176 35.0159 64.942 35.1256 64.6567 35.1621L64.4154 35.3961C64.3276 35.4108 64.2253 35.4254 64.1156 35.4327C64.0059 35.4473 63.9035 35.4547 63.7865 35.4547H62.9527V34.6502H63.6256C63.9035 34.6502 64.1229 34.5917 64.2764 34.482C64.43 34.3723 64.547 34.2114 64.6129 34.0139C64.6787 33.8165 64.7152 33.5751 64.7152 33.2972C64.7152 33.0193 64.686 32.7853 64.6275 32.5952C64.569 32.405 64.4666 32.2661 64.3203 32.171C64.1741 32.0759 63.9766 32.032 63.7206 32.032H62.7845L63.1941 31.6225V37.89H61.9801ZM64.9932 37.89L63.7572 35.1548L64.9127 34.9135L66.3607 37.89H64.9858H64.9932Z" fill="#002278"/> <path d="M70.9249 37.89V31.0813H72.8629C73.3529 31.0813 73.7478 31.1691 74.0477 31.3519C74.3548 31.5347 74.5742 31.7907 74.7059 32.1271C74.8375 32.4635 74.9107 32.8657 74.9107 33.3338C74.9107 33.8018 74.8375 34.2187 74.6839 34.5624C74.5304 34.9062 74.2963 35.1767 73.9746 35.3669C73.6528 35.557 73.2432 35.6521 72.7459 35.6521H71.8903V34.716H72.5704C72.8556 34.716 73.0823 34.6648 73.2432 34.5624C73.4041 34.46 73.5211 34.3065 73.587 34.1017C73.6528 33.8969 73.682 33.6483 73.682 33.3557C73.682 33.0632 73.6528 32.8219 73.587 32.6244C73.5284 32.4269 73.4261 32.2807 73.2798 32.1783C73.1335 32.0832 72.9361 32.032 72.6728 32.032H71.7221L72.1389 31.6225V37.89H70.9249Z" fill="#002278"/> <path d="M78.6257 37.9997C78.1211 37.9997 77.6969 37.9046 77.3532 37.7071C77.0094 37.5097 76.7462 37.2171 76.578 36.8222C76.4098 36.4273 76.3147 35.9373 76.3147 35.3449V31.0813H77.5287V35.3815C77.5287 35.7325 77.5653 36.0251 77.6457 36.2518C77.7261 36.4785 77.8432 36.654 78.0041 36.771C78.1649 36.888 78.3697 36.9466 78.6184 36.9466C78.8524 36.9466 79.0425 36.91 79.1815 36.8369C79.3204 36.7637 79.4375 36.654 79.5179 36.5078C79.5984 36.3615 79.6495 36.2006 79.6788 36.0031C79.708 35.8057 79.7154 35.6009 79.7154 35.3742V31.074H80.9294V35.3376C80.9294 35.93 80.8416 36.42 80.6734 36.8149C80.5052 37.2098 80.2492 37.5024 79.9128 37.6998C79.5691 37.8973 79.1449 37.9924 78.6257 37.9924V37.9997Z" fill="#002278"/> <path d="M82.6329 37.89V31.0813H84.7245C85.1706 31.0813 85.5363 31.1471 85.8215 31.2861C86.1067 31.425 86.3115 31.6152 86.4505 31.8711C86.5894 32.1271 86.6552 32.4269 86.6552 32.7707C86.6552 33.1363 86.5821 33.4435 86.4285 33.6995C86.2749 33.9554 86.0629 34.1456 85.785 34.2772C85.5071 34.4089 85.1853 34.4747 84.8196 34.4747L84.6368 34.248C85.1048 34.248 85.4997 34.3138 85.8215 34.4308C86.1433 34.5478 86.3846 34.7233 86.5529 34.9793C86.7211 35.2279 86.8088 35.5644 86.8088 35.9885C86.8088 36.3615 86.7357 36.6833 86.5967 36.9685C86.4578 37.2537 86.2238 37.4804 85.8947 37.6413C85.5729 37.8095 85.1341 37.89 84.5783 37.89H82.6329ZM83.8396 37.2098L83.6714 36.9758H84.5856C84.922 36.9758 85.1706 36.8807 85.3169 36.6906C85.4705 36.5005 85.5436 36.2226 85.5436 35.8423C85.5436 35.462 85.4632 35.1914 85.295 35.0305C85.1268 34.8696 84.8708 34.7891 84.5124 34.7891H83.5178V33.9335H84.5563C84.8927 33.9335 85.1268 33.8457 85.2438 33.6702C85.3681 33.4947 85.4266 33.246 85.4266 32.9316C85.4266 32.6171 85.3608 32.3758 85.2291 32.2149C85.0975 32.054 84.8708 31.9735 84.5563 31.9735H83.6495L83.825 31.798V37.1952L83.8396 37.2098Z" fill="#002278"/> <path d="M88.2721 37.89V31.0813H89.5007V37.0124L89.3471 36.8369H91.6069V37.89H88.2794H88.2721Z" fill="#002278"/> <path d="M92.9738 37.89V31.0813H94.2098V37.89H92.9738Z" fill="#002278"/> <path d="M98.4369 37.9852C97.9981 37.9852 97.6032 37.9047 97.2667 37.7511C96.9303 37.5976 96.6451 37.3635 96.4184 37.0637C96.1917 36.7565 96.0162 36.3909 95.8992 35.9594C95.7821 35.5279 95.7236 35.0306 95.7236 34.4675C95.7236 33.9043 95.7821 33.4143 95.9065 32.9902C96.0308 32.5587 96.2063 32.2003 96.4403 31.9078C96.667 31.6153 96.9523 31.3886 97.2814 31.2277C97.6105 31.0668 97.9834 30.9863 98.4003 30.9863C98.8903 30.9863 99.3145 31.0887 99.6874 31.3008C100.06 31.5129 100.36 31.8274 100.587 32.2369C100.814 32.6464 100.945 33.173 100.989 33.802H99.7898C99.7459 33.3778 99.6582 33.0414 99.5339 32.7927C99.4095 32.5367 99.256 32.3539 99.0658 32.2296C98.8757 32.1053 98.6709 32.0468 98.4369 32.0468C98.1224 32.0468 97.8591 32.1418 97.6397 32.332C97.4203 32.5221 97.2521 32.7927 97.1424 33.1511C97.0327 33.5094 96.9742 33.9482 96.9742 34.4675C96.9742 34.8624 97.0035 35.2134 97.062 35.5206C97.1205 35.8277 97.2082 36.0837 97.3326 36.2958C97.4569 36.5006 97.6105 36.6615 97.7933 36.7712C97.9761 36.8808 98.1882 36.932 98.4296 36.932C98.6855 36.932 98.8976 36.8735 99.0804 36.7492C99.2633 36.6322 99.4095 36.4494 99.5265 36.208C99.6436 35.9667 99.724 35.6668 99.7606 35.2939H100.945C100.916 35.7327 100.828 36.1276 100.704 36.464C100.572 36.8004 100.404 37.0856 100.185 37.3123C99.9653 37.539 99.7167 37.7073 99.4242 37.8243C99.1316 37.9413 98.8025 37.9925 98.4296 37.9925L98.4369 37.9852Z" fill="#002278"/> <path d="M107.301 37.9852C106.826 37.9852 106.431 37.8974 106.102 37.7292C105.78 37.561 105.531 37.3123 105.371 36.9832C105.21 36.6541 105.129 36.2592 105.137 35.7985H106.277C106.277 36.0618 106.314 36.2885 106.394 36.4786C106.475 36.6688 106.592 36.8077 106.745 36.9101C106.899 37.0125 107.082 37.0564 107.301 37.0564C107.484 37.0564 107.638 37.0198 107.769 36.9467C107.901 36.8735 107.996 36.7712 108.069 36.6322C108.142 36.4932 108.179 36.325 108.179 36.1422C108.179 35.9374 108.135 35.7765 108.055 35.6376C107.974 35.5059 107.864 35.3962 107.718 35.3012C107.572 35.2134 107.418 35.133 107.243 35.0598C107.075 34.994 106.892 34.9209 106.702 34.8478C106.511 34.7746 106.336 34.6942 106.16 34.5918C105.992 34.4967 105.831 34.3724 105.7 34.2334C105.561 34.0945 105.458 33.919 105.371 33.7069C105.29 33.5021 105.246 33.2388 105.246 32.917C105.246 32.5148 105.319 32.1711 105.473 31.8786C105.627 31.586 105.853 31.3666 106.146 31.213C106.446 31.0595 106.804 30.9863 107.213 30.9863C107.652 30.9863 108.033 31.0668 108.34 31.2277C108.654 31.3886 108.888 31.6226 109.056 31.9297C109.225 32.2442 109.305 32.6245 109.305 33.0852H108.208C108.223 32.8293 108.193 32.6099 108.113 32.4417C108.04 32.2735 107.93 32.1345 107.784 32.0468C107.645 31.9517 107.477 31.9078 107.279 31.9078C107.111 31.9078 106.965 31.9444 106.833 32.0175C106.702 32.0906 106.606 32.193 106.541 32.3393C106.475 32.4782 106.446 32.6538 106.446 32.8439C106.446 33.056 106.489 33.2315 106.57 33.3632C106.65 33.4948 106.767 33.6118 106.906 33.6996C107.045 33.7946 107.199 33.8678 107.374 33.9263C107.543 33.9848 107.725 34.0506 107.916 34.1164C108.106 34.1822 108.281 34.2627 108.457 34.3504C108.625 34.4382 108.786 34.5552 108.925 34.6942C109.064 34.8331 109.173 35.0086 109.254 35.2134C109.334 35.4182 109.378 35.6815 109.378 36.0033C109.378 36.4274 109.298 36.7858 109.137 37.0856C108.976 37.3855 108.735 37.6049 108.42 37.7584C108.106 37.912 107.725 37.9852 107.287 37.9852H107.301Z" fill="#002278"/> <path d="M111.097 37.89V31.0813H114.651V32.1125H112.289V33.992H114.417V34.9281H112.289V36.8661H114.651V37.8973H111.097V37.89Z" fill="#002278"/> <path d="M116.457 37.89V31.0813H118.351C118.717 31.0813 119.039 31.1325 119.302 31.2276C119.565 31.3226 119.777 31.4689 119.946 31.6517C120.114 31.8419 120.231 32.0686 120.311 32.3392C120.392 32.6098 120.436 32.9023 120.436 33.2314C120.436 33.5605 120.384 33.8677 120.289 34.1456C120.194 34.4235 120.048 34.6575 119.851 34.833C119.653 35.0159 119.419 35.1256 119.134 35.1621L118.893 35.3961C118.805 35.4108 118.702 35.4254 118.593 35.4327C118.483 35.4473 118.381 35.4547 118.264 35.4547H117.43V34.6502H118.103C118.381 34.6502 118.6 34.5917 118.754 34.482C118.907 34.3723 119.024 34.2114 119.09 34.0139C119.156 33.8165 119.192 33.5751 119.192 33.2972C119.192 33.0193 119.163 32.7853 119.105 32.5952C119.046 32.405 118.944 32.2661 118.797 32.171C118.651 32.0759 118.454 32.032 118.198 32.032H117.262L117.671 31.6225V37.89H116.457ZM119.47 37.89L118.234 35.1548L119.39 34.9135L120.838 37.89H119.463H119.47Z" fill="#002278"/> <path d="M123.551 37.8973L121.671 31.074H122.966L124.355 37.0051H124.121L125.533 31.074H126.791L124.911 37.8973H123.551Z" fill="#002278"/> <path d="M128.012 37.89V31.0813H129.248V37.89H128.012Z" fill="#002278"/> <path d="M133.482 37.9852C133.043 37.9852 132.649 37.9047 132.312 37.7511C131.976 37.5976 131.69 37.3635 131.464 37.0637C131.237 36.7565 131.062 36.3909 130.945 35.9594C130.827 35.5279 130.769 35.0306 130.769 34.4675C130.769 33.9043 130.827 33.4143 130.952 32.9902C131.076 32.5587 131.252 32.2003 131.486 31.9078C131.712 31.6153 131.998 31.3886 132.327 31.2277C132.656 31.0668 133.029 30.9863 133.446 30.9863C133.936 30.9863 134.36 31.0887 134.733 31.3008C135.106 31.5129 135.406 31.8274 135.632 32.2369C135.859 32.6464 135.991 33.173 136.035 33.802H134.835C134.791 33.3778 134.704 33.0414 134.579 32.7927C134.455 32.5367 134.301 32.3539 134.111 32.2296C133.921 32.1053 133.716 32.0468 133.482 32.0468C133.168 32.0468 132.904 32.1418 132.685 32.332C132.466 32.5221 132.297 32.7927 132.188 33.1511C132.078 33.5094 132.02 33.9482 132.02 34.4675C132.02 34.8624 132.049 35.2134 132.107 35.5206C132.166 35.8277 132.254 36.0837 132.378 36.2958C132.502 36.5006 132.656 36.6615 132.839 36.7712C133.021 36.8808 133.234 36.932 133.475 36.932C133.731 36.932 133.943 36.8735 134.126 36.7492C134.309 36.6322 134.455 36.4494 134.572 36.208C134.689 35.9667 134.769 35.6668 134.806 35.2939H135.991C135.961 35.7327 135.874 36.1276 135.749 36.464C135.618 36.8004 135.45 37.0856 135.23 37.3123C135.011 37.539 134.762 37.7073 134.47 37.8243C134.177 37.9413 133.848 37.9925 133.475 37.9925L133.482 37.9852Z" fill="#002278"/> <path d="M137.534 37.89V31.0813H141.088V32.1125H138.726V33.992H140.854V34.9281H138.726V36.8661H141.088V37.8973H137.534V37.89Z" fill="#002278"/> </svg>