<svg width="113" height="30" viewBox="0 0 113 30" fill="none" xmlns="http://www.w3.org/2000/svg">
  <path opacity="0.8" d="M5.10723 0.920793L17.7607 13.5743L26.1667 5.16832C28.0677 3.26733 26.731 0.0297026 24.028 0.0297026H3.02802H2.96862H2.93891C2.19634 0.0297026 1.48347 0.326733 0.978516 0.772278C1.54287 0.29703 2.25574 0 2.99832 0C3.74089 0.029703 4.48347 0.29703 5.10723 0.920793Z" fill="white"/>
  <path d="M5.10892 26.2273L17.7624 13.5739L5.10892 0.920387C4.48515 0.296624 3.74258 0.0292969 3 0.0292969C2.25743 0.0292969 1.54456 0.296624 0.980199 0.801575C0.415842 1.27682 0.059406 1.9897 0 2.76197C0 2.82138 0 2.85108 0 2.91049C0 2.94019 0 2.96989 0 3.0293V3.08871V24.1481C0 24.1778 0 24.2075 0 24.2669C0 24.3264 0 24.3561 0 24.4155C0.089109 25.1877 0.445545 25.8709 0.980199 26.3759C1.54456 26.8511 2.25743 27.1481 3 27.1481C3.74258 27.1184 4.48515 26.8511 5.10892 26.2273Z" fill="white"/>
  <path opacity="0.8" d="M17.7607 13.5762L5.10723 26.2297C4.48347 26.8534 3.74089 27.1207 2.99832 27.1207C2.25574 27.1207 1.54287 26.8534 0.978516 26.3485C1.51317 26.8237 2.19634 27.091 2.93891 27.091H2.96862H3.02802H24.028C26.7013 27.091 28.0677 23.8534 26.1667 21.9524L17.7607 13.5762Z" fill="white"/>
  <path d="M50.2266 3.94922C51.5335 3.94922 52.6028 4.36506 53.4939 5.22645C54.3553 6.08784 54.8009 7.18685 54.8009 8.49378C54.8009 9.83041 54.3553 10.9294 53.4939 11.7611C52.6325 12.6225 51.5335 13.0383 50.2266 13.0383C48.9494 13.0383 47.8504 12.5928 46.9593 11.7314C46.0682 10.87 45.6523 9.77101 45.6523 8.46408C45.6523 7.15714 46.0979 6.05813 46.9593 5.19675C47.8504 4.36506 48.9494 3.94922 50.2266 3.94922ZM50.2266 10.6324C50.7613 10.6324 51.2365 10.4542 51.5929 10.068C51.9791 9.7116 52.1573 9.17695 52.1573 8.46408C52.1573 7.78091 51.9791 7.24625 51.5929 6.88982C51.2068 6.53338 50.7613 6.35516 50.2266 6.35516C49.692 6.35516 49.2464 6.53338 48.8603 6.91952C48.4741 7.27596 48.2959 7.81061 48.2959 8.49378C48.2959 9.17695 48.4741 9.7116 48.8603 10.068C49.2464 10.4542 49.692 10.6324 50.2266 10.6324Z" fill="white"/>
  <path d="M58.7842 7.87002V12.8007H56.1406V4.18684H58.6951V5.16704C58.903 4.7809 59.2594 4.48387 59.705 4.27595C60.1505 4.06803 60.6258 3.94922 61.101 3.94922C62.1406 3.94922 62.9129 4.27595 63.4476 4.89972C63.9822 5.55318 64.2495 6.35516 64.2495 7.36506V12.771H61.606V7.84031C61.606 7.39477 61.4872 7.03833 61.2495 6.771C61.0119 6.50368 60.6555 6.35516 60.2099 6.35516C59.7941 6.35516 59.4377 6.50368 59.1703 6.771C58.903 7.06803 58.7842 7.42447 58.7842 7.87002Z" fill="white"/>
  <path d="M65.4961 13.2767L67.8129 12.6232C67.902 13.0391 68.11 13.3955 68.4367 13.6628C68.7634 13.9302 69.1793 14.049 69.6545 14.049C71.0803 14.049 71.7931 13.3064 71.7931 11.851V11.4648C71.3773 12.1183 70.605 12.445 69.4763 12.445C68.3476 12.445 67.3674 12.0589 66.6248 11.2569C65.8525 10.4549 65.4961 9.47471 65.4961 8.25689C65.4961 7.09847 65.8822 6.11827 66.6248 5.28659C67.3674 4.4549 68.3476 4.03906 69.4763 4.03906C70.1001 4.03906 70.6347 4.15787 71.0208 4.3658C71.4367 4.57372 71.704 4.84104 71.8525 5.10837V4.18758H74.3773V11.7321C74.3773 13.0688 73.9911 14.1678 73.2189 15.0589C72.4466 15.9203 71.2882 16.3658 69.7733 16.3658C68.5852 16.3658 67.605 16.0688 66.8327 15.445C66.0902 14.851 65.6446 14.1084 65.4961 13.2767ZM68.6446 9.62323C69.001 9.97966 69.4466 10.1579 69.9812 10.1579C70.5159 10.1579 70.9614 9.97966 71.3179 9.62323C71.6743 9.26679 71.8228 8.82125 71.8228 8.22719C71.8228 7.66283 71.6446 7.21728 71.2882 6.86085C70.9317 6.50441 70.4862 6.32619 69.9812 6.32619C69.4763 6.32619 69.0308 6.50441 68.6743 6.86085C68.3179 7.21728 68.1397 7.66283 68.1397 8.22719C68.1397 8.82125 68.3179 9.29649 68.6446 9.62323Z" fill="white"/>
  <path d="M84.6545 4.1875L81.3872 12.8014H78.7436L75.209 4.1875H78.0605L80.0506 9.53404L81.8922 4.1875H84.6545Z" fill="white"/>
  <path d="M85.8713 2.64357C85.5743 2.34654 85.4258 1.9901 85.4258 1.54456C85.4258 1.09901 85.5743 0.742575 85.8713 0.445545C86.1684 0.148515 86.5248 0 86.9406 0C87.3565 0 87.7426 0.148515 88.0397 0.445545C88.3367 0.742575 88.4852 1.09901 88.4852 1.54456C88.4852 1.9901 88.3367 2.34654 88.0397 2.64357C87.7426 2.9406 87.3565 3.08911 86.9406 3.08911C86.5248 3.08911 86.1684 2.9406 85.8713 2.64357ZM88.2773 12.802H85.6337V4.18812H88.2773V12.802Z" fill="white"/>
  <path d="M95.8822 9.71201L98.0802 10.3358C97.8723 11.1378 97.397 11.7912 96.7138 12.2962C96.0307 12.8011 95.1693 13.0684 94.1297 13.0684C92.8822 13.0684 91.8128 12.6526 90.9515 11.8209C90.0901 10.9892 89.6445 9.86052 89.6445 8.46448C89.6445 7.12785 90.0604 6.02884 90.9218 5.19715C91.7831 4.36547 92.7633 3.91992 93.9515 3.91992C95.2881 3.91992 96.3574 4.30606 97.1 5.07834C97.8723 5.85062 98.2584 6.94963 98.2584 8.31597C98.2584 8.76151 98.2287 9.02884 98.199 9.11795H92.199C92.2287 9.5932 92.4366 9.97934 92.7931 10.3061C93.1792 10.6328 93.6247 10.7813 94.1594 10.7813C95.0208 10.8407 95.6148 10.4546 95.8822 9.71201ZM92.2287 7.45458H95.6742C95.6445 7.06844 95.496 6.71201 95.2287 6.44468C94.9317 6.14765 94.5158 5.99913 93.9515 5.99913C93.4465 5.99913 93.0307 6.14765 92.7336 6.44468C92.4366 6.77141 92.2584 7.09814 92.2287 7.45458Z" fill="white"/>
  <path d="M104.317 4.1875H107.079L108.772 9.29642L110.198 4.1875H112.782L110.139 12.8014H107.525L105.653 7.24691L103.812 12.8014H101.139L98.4355 4.1875H101.168L102.594 9.29642L104.317 4.1875Z" fill="white"/>
  <path d="M44.9694 12.8018H36.9199V0.296875H39.6526V10.1286H44.9694V12.8018Z" fill="white"/>
  <path d="M40.485 21.6529C41.7028 21.6529 42.4751 20.9697 42.4751 19.9301C42.4751 18.8608 41.7325 18.1479 40.485 18.1479H38.4355V21.6529H40.485ZM38.4355 22.9301V27.1182H37.0098V16.9004H40.7226C42.6236 16.9004 43.8712 18.2073 43.8712 19.9301C43.8712 21.6529 42.5939 22.9301 40.7226 22.9301H38.4355V22.9301Z" fill="white"/>
  <path d="M46.2784 27.1195H44.9121V16.6641H46.2784V20.971C46.7834 20.2284 47.5854 19.9611 48.3874 19.9611C50.0507 19.9611 50.8527 21.1492 50.8527 22.6938V27.1195H49.4864V22.9611C49.4864 21.9809 49.0705 21.2086 47.8824 21.2086C46.8428 21.2086 46.3082 22.0106 46.2784 23.0502V27.1195Z" fill="white"/>
  <path d="M52.5744 27.1188V20.1683H53.911V27.1188H52.5744ZM53.2575 16.5742C53.7922 16.5742 54.2377 17.0198 54.2377 17.5544C54.2377 18.0891 53.7922 18.5346 53.2575 18.5346C52.7229 18.5346 52.2773 18.0891 52.2773 17.5544C52.2773 17.0198 52.7229 16.5742 53.2575 16.5742Z" fill="white"/>
  <path d="M57.1769 16.6641H55.8105V27.0898H57.1769V16.6641Z" fill="white"/>
  <path d="M63.148 24.1471V23.8204L61.0391 24.1471C60.4747 24.2362 60.0292 24.5629 60.0292 25.1867C60.0292 25.6917 60.4747 26.1966 61.1579 26.1966C62.2272 26.1966 63.148 25.662 63.148 24.1471ZM60.742 23.1372L62.6133 22.8699C63.0292 22.8105 63.148 22.6026 63.148 22.3649C63.148 21.6818 62.7024 21.1174 61.6628 21.1174C60.7123 21.1174 60.1777 21.7115 60.0886 22.5134L58.7816 22.2164C58.9302 20.8798 60.1183 19.959 61.6331 19.959C63.7123 19.959 64.5143 21.1471 64.5143 22.4837V25.959C64.5143 26.5531 64.5737 26.9392 64.6034 27.0877H63.2668C63.2371 26.9095 63.2074 26.6422 63.2074 26.1372C62.9104 26.6422 62.2272 27.2956 60.9797 27.2956C59.5539 27.2956 58.6628 26.3154 58.6628 25.2164C58.6331 23.9986 59.5242 23.3154 60.742 23.1372Z" fill="white"/>
  <path d="M67.546 27.117H66.1797V20.1665H67.5163V21.1764C68.0213 20.315 68.853 19.9883 69.6549 19.9883C71.3183 19.9883 72.1203 21.1764 72.1203 22.721V27.117H70.7539V22.9586C70.7539 21.9784 70.3381 21.2061 69.15 21.2061C68.0807 21.2061 67.546 22.0675 67.546 23.1071V27.117Z" fill="white"/>
  <path d="M75.6557 20.1703H77.1408V21.3881H75.6557V24.9822C75.6557 25.6059 75.923 25.9327 76.6359 25.9327C76.8141 25.9327 77.0517 25.903 77.1705 25.8733V27.0317C77.0517 27.0614 76.6953 27.1505 76.2498 27.1505C75.0616 27.1505 74.3191 26.4376 74.3191 25.1604V21.4178H72.9824V20.2H73.3686C74.1111 20.2 74.4379 19.7247 74.4379 19.1307V18.002H75.6854L75.6557 20.1703Z" fill="white"/>
  <path d="M79.8722 27.1195H78.5059V16.6641H79.8722V20.971C80.3772 20.2284 81.1791 19.9611 81.9811 19.9611C83.6445 19.9611 84.4465 21.1492 84.4465 22.6938V27.1195H83.0801V22.9611C83.0801 21.9809 82.6643 21.2086 81.4762 21.2086C80.4366 21.2086 79.9019 22.0106 79.8722 23.0502V27.1195V27.1195Z" fill="white"/>
  <path d="M90.0587 21.5656C89.8507 21.5359 89.6428 21.5359 89.4646 21.5359C88.3359 21.5359 87.5636 22.13 87.5636 23.6745V27.1201H86.1973V20.1696H87.5339V21.3874C88.0389 20.3181 88.9002 20.0508 89.6131 20.0508C89.7913 20.0508 89.9993 20.0805 90.0587 20.0805V21.5656Z" fill="white"/>
  <path d="M96.1502 23.6422C96.1502 22.0382 95.1403 21.1768 93.9819 21.1768C92.8235 21.1768 91.8136 22.0382 91.8136 23.6422C91.8136 25.2461 92.8235 26.1075 93.9819 26.1075C95.1403 26.1075 96.1502 25.2461 96.1502 23.6422ZM97.5166 23.6422C97.5166 25.7511 96.0314 27.3253 93.9819 27.3253C91.9324 27.3253 90.4473 25.7511 90.4473 23.6422C90.4473 21.5332 91.9324 19.959 93.9819 19.959C96.0314 19.959 97.5166 21.5332 97.5166 23.6422Z" fill="white"/>
  <path d="M102.208 21.2061C100.961 21.2061 100.159 22.2457 100.159 23.612C100.159 25.0378 100.991 26.0774 102.208 26.0774C103.456 26.0774 104.258 25.0675 104.258 23.612C104.258 22.2457 103.486 21.2061 102.208 21.2061ZM98.8223 29.8497V20.1665H100.129V21.2358C100.515 20.5526 101.317 19.9883 102.446 19.9883C104.525 19.9883 105.624 21.5922 105.624 23.612C105.624 25.6616 104.436 27.2655 102.387 27.2655C101.317 27.2655 100.515 26.7606 100.129 26.1368V29.82L98.8223 29.8497Z" fill="white"/>
  <path d="M106.902 29.9997L108.654 26.3462L105.654 20.168H107.229L109.367 24.9502L111.446 20.168H112.902L108.387 29.9997H106.902Z" fill="white"/>
</svg>